<?xml version="1.0" encoding="utf-8"?>
<!-- Generator: Adobe Illustrator 27.8.1, SVG Export Plug-In . SVG Version: 6.00 Build 0)  -->
<svg version="1.1" id="Layer_1" xmlns="http://www.w3.org/2000/svg" xmlns:xlink="http://www.w3.org/1999/xlink" x="0px" y="0px"
	 viewBox="0 0 799.6 208.4" style="enable-background:new 0 0 799.6 208.4;" xml:space="preserve">
<style type="text/css">
	.st0{fill:#004E53;}
	.st1{fill:#00E7AD;}
</style>
<g>
	<g>
		<path class="st0" d="M164.6,145.4c-3.3,0-6.4,1.1-8.8,3l-9.1-9.1c2.3-3.8,1.8-8.8-1.4-12c-3.3-3.3-8.3-3.7-12-1.4L117,109.6
			c1.7-2,2.7-4.6,2.7-7.5c0-1.7-0.4-3.4-1.1-4.8l14.5-14.5c3.8,2.3,8.7,1.8,12-1.4c3.3-3.3,3.7-8.2,1.4-12L156,60
			c0.1-0.1,0.1-0.2,0.2-0.3c2.3,1.6,5.1,2.5,8.1,2.5c8,0,14.4-6.5,14.4-14.4c0-8-6.5-14.4-14.4-14.4s-14.4,6.5-14.4,14.4
			c0,3.4,1.2,6.6,3.2,9.1c0,0-0.1,0.1-0.1,0.1l-9.3,9.3c-3.8-2.5-9-2.1-12.4,1.2c-3.4,3.4-3.8,8.5-1.2,12.4l-14,14
			c-2.1-2-4.9-3.2-7.9-3.2c-2.8,0-5.4,1-7.5,2.7L87.1,79.8c2.5-3.8,2.1-9-1.3-12.3c-3.3-3.3-8.5-3.8-12.3-1.3L64.3,57
			c-0.1-0.1-0.3-0.2-0.4-0.3c1.8-2.4,2.8-5.3,2.8-8.5c0-8-6.5-14.4-14.4-14.4s-14.4,6.5-14.4,14.4c0,8,6.5,14.4,14.4,14.4
			c3.3,0,6.3-1.1,8.7-2.9c0.1,0.1,0.2,0.3,0.3,0.4l9.3,9.3c-2.3,3.8-1.9,8.8,1.4,12.1c3.3,3.3,8.3,3.7,12.1,1.4l14,14
			c-0.9,1.6-1.4,3.5-1.4,5.4c0,3.1,1.2,5.9,3.2,7.9l-15.8,15.8c-3.8-2.3-8.8-1.9-12.1,1.4c-3.3,3.3-3.7,8.3-1.4,12.1l-9.3,9.3
			c0,0,0,0,0,0c-2.4-1.8-5.4-2.9-8.7-2.9c-8,0-14.4,6.5-14.4,14.4s6.5,14.4,14.4,14.4S67,168.1,67,160.1c0-3.2-1-6.1-2.7-8.4
			c0,0,0,0,0,0l9.2-9.2c3.8,2.5,8.9,2,12.3-1.3c3.3-3.3,3.8-8.5,1.3-12.3l16.2-16.2c1.5,0.7,3.1,1.1,4.8,1.1c2,0,3.8-0.5,5.4-1.4
			l16.4,16.4c-2.5,3.8-2.1,9,1.3,12.3c3.4,3.4,8.5,3.8,12.3,1.3l9.1,9.1c-1.7,2.3-2.6,5.2-2.6,8.3c0,8,6.5,14.4,14.4,14.4
			c8,0,14.4-6.5,14.4-14.4S172.6,145.4,164.6,145.4z M135.1,71.3c1.8-1.8,4.6-1.8,6.4,0c1.8,1.8,1.8,4.6,0,6.4
			c-1.8,1.8-4.6,1.8-6.4,0C133.3,76,133.3,73.1,135.1,71.3z M82.1,77.7c-1.8,1.8-4.6,1.8-6.4,0c-1.8-1.8-1.8-4.6,0-6.4
			c1.8-1.8,4.6-1.8,6.4,0C83.9,73.1,83.9,76,82.1,77.7z M82.1,137.5c-1.8,1.8-4.6,1.8-6.4,0c-1.8-1.8-1.8-4.6,0-6.4
			c1.8-1.8,4.6-1.8,6.4,0C83.9,132.9,83.9,135.7,82.1,137.5z M141.3,137.1c-1.8,1.8-4.6,1.8-6.4,0c-1.8-1.8-1.8-4.6,0-6.4
			c1.8-1.8,4.6-1.8,6.4,0C143,132.5,143,135.4,141.3,137.1z"/>
		<g>
			<path class="st0" d="M138.4,159.2H78.2c-1.4,0-2.5,1.1-2.5,2.5c0,1.4,1.1,2.5,2.5,2.5h60.2c1.4,0,2.5-1.1,2.5-2.5
				C140.9,160.3,139.8,159.2,138.4,159.2z"/>
			<path class="st0" d="M77.8,48.8H138c1.4,0,2.5-1.1,2.5-2.5c0-1.4-1.1-2.5-2.5-2.5H77.8c-1.4,0-2.5,1.1-2.5,2.5
				C75.3,47.7,76.5,48.8,77.8,48.8z"/>
			<path class="st0" d="M163.6,71.7v62c0,1.4,1.1,2.5,2.5,2.5c1.4,0,2.5-1.1,2.5-2.5v-62c0-1.4-1.1-2.5-2.5-2.5
				C164.7,69.2,163.6,70.3,163.6,71.7z"/>
			<path class="st0" d="M53.2,136.2v-62c0-1.4-1.1-2.5-2.5-2.5c-1.4,0-2.5,1.1-2.5,2.5v62c0,1.4,1.1,2.5,2.5,2.5
				C52.1,138.7,53.2,137.6,53.2,136.2z"/>
			<path class="st0" d="M108.1,85.9c1.2,0,2.1-1,2.1-2.1V71.2c4.3-1,7.6-4.9,7.6-9.5c0-5.4-4.4-9.8-9.8-9.8c-5.4,0-9.8,4.4-9.8,9.8
				c0,4.7,3.3,8.7,7.8,9.6v12.5C106,84.9,106.9,85.9,108.1,85.9z M103.5,61.8c0-2.5,2-4.5,4.5-4.5c2.5,0,4.5,2,4.5,4.5
				c0,2.5-2,4.5-4.5,4.5C105.5,66.3,103.5,64.3,103.5,61.8z"/>
		</g>
		<polygon class="st0" points="301.1,96.5 301.1,114.5 214.8,114.5 214.8,33.7 299.8,33.7 299.8,51.7 238,51.7 238,65 289,65 
			289,82.2 238,82.2 238,96.5 		"/>
		<g>
			<path class="st0" d="M387.3,74.1c0-14.3-11.3-21.7-28.6-21.7h-19.7v43.4h19.7C375.9,95.8,387.3,88.4,387.3,74.1 M411.3,74.1
				c0,25.4-19.7,40.4-50.8,40.4h-45.2V33.7h45.2C391.5,33.7,411.3,48.7,411.3,74.1"/>
			<path class="st0" d="M520.9,99.3c-8.7,10.7-24.6,17.9-46.2,17.9c-33.1,0-53.7-15.7-53.7-43.1c0-27.4,20.6-43.1,53.7-43.1
				c20,0,34.4,7,42.8,14.9l-17.2,12.7c-6.9-6.2-14.2-9-25.1-9c-19.6,0-30.4,8.7-30.4,24.5c0,15.9,11.1,24.6,30.7,24.6
				c9.9,0,17.8-2,23.4-7.2v-7.3h-26.8V67.8h48.6V99.3z"/>
		</g>
		<polygon class="st0" points="622.2,96.5 622.2,114.5 535.9,114.5 535.9,33.7 620.9,33.7 620.9,51.7 559.1,51.7 559.1,65 610,65 
			610,82.2 559.1,82.2 559.1,96.5 		"/>
		<polygon class="st0" points="686.9,33.7 671.7,33.7 627.9,114.5 643,114.5 653.3,95 659.4,83.3 679.2,45.9 698.9,83.3 667.7,83.3 
			661.5,95 705,95 715.5,114.5 730.6,114.5 		"/>
		<rect x="743.9" y="33.7" class="st0" width="13.9" height="80.8"/>
		<polygon class="st0" points="222,139.2 222,151.5 250.3,151.5 250.3,157.8 222,157.8 222,174.5 214.8,174.5 214.8,132.9 
			255.5,132.9 255.5,139.2 		"/>
		<g>
			<path class="st0" d="M309.6,153.7c0-10.1-7.2-15.7-18.5-15.7c-11.3,0-18.6,5.6-18.6,15.7s7.2,15.7,18.6,15.7
				C302.3,169.5,309.6,163.8,309.6,153.7 M265.2,153.7c0-13.7,9.9-22,25.8-22c16,0,25.8,8.3,25.8,22s-9.9,22-25.8,22
				C275.1,175.8,265.2,167.4,265.2,153.7"/>
			<path class="st0" d="M376.6,132.9v22c0,12.3-7.9,20.8-22.6,20.8c-14.7,0-22.6-8.6-22.6-20.8v-22h7.1v21.5c0,9.3,5.5,15,15.4,15
				c10,0,15.5-5.6,15.5-15v-21.5H376.6z"/>
		</g>
		<polygon class="st0" points="439.6,132.9 439.6,174.5 433.3,174.5 400.8,141.7 400.8,174.5 394,174.5 394,132.9 401.6,132.9 
			432.7,164.5 432.7,132.9 		"/>
		<g>
			<path class="st0" d="M496.8,153.7c0-9.6-7.6-14.6-18.5-14.6h-13.4v29.1h13.4C489.2,168.3,496.8,163.3,496.8,153.7 M504.2,153.7
				c0,12.8-9.9,20.8-25.3,20.8h-21.1v-41.6h21.1C494.3,132.9,504.2,140.9,504.2,153.7"/>
		</g>
		<path class="st0" d="M547.9,158.4l-10.2-19.2l-10.2,19.2H547.9z M551,164.5h-26.7l-5.3,10h-7.7l22.5-41.6h7.8l22.5,41.6h-7.8
			L551,164.5z"/>
		<polygon class="st0" points="609.7,139.2 590.7,139.2 590.7,174.5 583.6,174.5 583.6,139.2 564.8,139.2 564.8,132.9 609.7,132.9 
					"/>
		<rect x="622.8" y="132.9" class="st0" width="7.1" height="41.6"/>
		<g>
			<path class="st0" d="M689.5,153.7c0-10.1-7.2-15.7-18.5-15.7c-11.3,0-18.6,5.6-18.6,15.7s7.2,15.7,18.6,15.7
				C682.2,169.5,689.5,163.8,689.5,153.7 M645.1,153.7c0-13.7,9.9-22,25.8-22c16,0,25.8,8.3,25.8,22s-9.9,22-25.8,22
				C655,175.8,645.1,167.4,645.1,153.7"/>
		</g>
		<polygon class="st0" points="750.8,132.9 750.8,164.5 719.7,132.9 712.1,132.9 712.1,174.5 718.9,174.5 718.9,141.7 751.4,174.5 
			757.7,174.5 757.7,132.9 		"/>
		<g>
			<path class="st1" d="M171.2,159.8c0,3.7-3,6.6-6.6,6.6c-3.7,0-6.6-3-6.6-6.6s3-6.6,6.6-6.6C168.3,153.2,171.2,156.1,171.2,159.8"
				/>
			<path class="st1" d="M164.3,41.2c3.7,0,6.6,3,6.6,6.6c0,3.7-3,6.6-6.6,6.6s-6.6-3-6.6-6.6C157.6,44.1,160.6,41.2,164.3,41.2"/>
			<path class="st1" d="M45.6,48.1c0-3.7,3-6.6,6.6-6.6c3.7,0,6.6,3,6.6,6.6s-3,6.6-6.6,6.6C48.6,54.8,45.6,51.8,45.6,48.1"/>
			<path class="st1" d="M52.6,166.8c-3.7,0-6.6-3-6.6-6.6c0-3.7,3-6.6,6.6-6.6s6.6,3,6.6,6.6C59.2,163.8,56.3,166.8,52.6,166.8"/>
		</g>
		<path class="st0" d="M110.3,133.3v-12.5c0-1.2-1-2.1-2.1-2.1c-1.2,0-2.1,1-2.1,2.1v12.5c-4.4,1-7.7,4.9-7.7,9.6
			c0,5.4,4.4,9.8,9.8,9.8c5.4,0,9.8-4.4,9.8-9.8C117.9,138.2,114.7,134.3,110.3,133.3z M108.1,147.6c-2.5,0-4.5-2-4.5-4.5
			c0-2.5,2-4.5,4.5-4.5c2.5,0,4.5,2,4.5,4.5C112.6,145.5,110.6,147.6,108.1,147.6z"/>
		<path class="st0" d="M148.8,92.5c-4.7,0-8.6,3.3-9.6,7.6h-12.6c-1.2,0-2.1,1-2.1,2.1c0,1.2,1,2.1,2.1,2.1h12.6
			c1,4.4,4.9,7.7,9.6,7.7c5.4,0,9.8-4.4,9.8-9.8C158.6,96.9,154.2,92.5,148.8,92.5z M148.7,107c-2.5,0-4.5-2-4.5-4.5
			c0-2.5,2-4.5,4.5-4.5c2.5,0,4.5,2,4.5,4.5C153.2,104.9,151.2,107,148.7,107z"/>
		<path class="st0" d="M89.6,100.1H77.1c-1-4.4-4.9-7.7-9.6-7.7c-5.4,0-9.8,4.4-9.8,9.8c0,5.4,4.4,9.8,9.8,9.8
			c4.7,0,8.6-3.3,9.6-7.7h12.5c1.2,0,2.1-1,2.1-2.1C91.7,101.1,90.8,100.1,89.6,100.1z M67.7,107c-2.5,0-4.5-2-4.5-4.5
			c0-2.5,2-4.5,4.5-4.5c2.5,0,4.5,2,4.5,4.5C72.2,104.9,70.2,107,67.7,107z"/>
	</g>
	<g>
		<path class="st0" d="M765.9,40.5v-5.6h-2.1v-1.2h5.5v1.2h-2v5.6H765.9z M770.2,40.5v-6.8h2.2l1.2,4.7l1.2-4.7h2.2v6.8h-1.3v-5.4
			l-1.5,5.4h-1.2l-1.5-5.4v5.4H770.2z"/>
	</g>
</g>
</svg>
